<svg width="37" height="47" viewBox="0 0 37 47" fill="none" xmlns="http://www.w3.org/2000/svg">
<path d="M22.7281 1.07648C24.6835 1.85421 26.6119 2.67362 28.5314 3.55242C31.1711 4.53341 33.8052 4.97116 36.5572 5.41785C36.7019 9.57788 36.7888 13.7371 36.8659 17.8993C36.9073 19.0689 36.9487 20.2385 36.9913 21.4436C37.098 29.1368 36.2781 34.256 31.6183 40.1488C27.7315 44.4261 24.6047 46.489 19.0239 47C13.798 46.9052 10.1366 44.7387 6.45273 40.7338C2.43796 35.6519 0.738818 32.0549 0.803793 25.344C0.81016 24.1828 0.816527 23.0216 0.823086 21.8252C0.839639 20.6192 0.856193 19.4132 0.873247 18.1706C0.882161 16.9478 0.891074 15.725 0.900257 14.4652C0.92352 11.4492 0.956008 8.43363 0.996721 5.41785C1.80656 5.20799 2.61639 4.99813 3.45077 4.78191C4.51527 4.49929 5.57976 4.21668 6.67652 3.9255C8.25799 3.50998 8.25799 3.50998 9.87141 3.08606C12.7824 2.294 12.7824 2.294 15.0419 0.953533C17.8312 -0.572123 19.7546 0.259698 22.7281 1.07648Z" fill="#689D31"/>
<path d="M19.024 0.398483C19.5944 0.622335 20.1648 0.846187 20.7526 1.07682C20.1352 4.67202 20.1352 4.67202 18.777 8.67421C15.8754 10.5736 15.8754 10.5736 12.8503 11.9302C10.0248 14.3695 8.90606 16.8295 7.9113 20.613C7.75807 23.5348 7.82085 26.3641 7.9113 29.2957C10.0536 28.7465 11.8621 28.2105 13.838 27.125C13.7566 25.9386 13.6751 24.7522 13.5911 23.5298C13.838 19.5276 13.838 19.5276 15.8136 17.4248C16.4656 17.0442 17.1175 16.6637 17.7892 16.2716C20.2271 17.5216 21.7876 18.4942 23.716 20.613C23.6752 21.6427 23.6345 22.6724 23.5925 23.7333C23.4047 27.2535 23.4047 27.2535 25.6915 29.7027C26.3435 30.2847 26.9954 30.8667 27.6671 31.4664C26.5601 32.377 25.4478 33.2801 24.3333 34.1797C23.7145 34.6834 23.0957 35.1871 22.4581 35.706C20.7526 36.8931 20.7526 36.8931 18.777 36.8931C18.777 40.1166 18.777 43.34 18.777 46.6612C12.8978 46.5266 10.0917 44.4793 5.73507 40.2382C0.288448 33.3039 0.628726 26.7811 0.811548 18.0353C0.824918 16.8223 0.838288 15.6093 0.852063 14.3595C0.886846 11.3785 0.935495 8.39864 0.996759 5.41819C1.80659 5.20833 2.61643 4.99847 3.4508 4.78225C4.5153 4.49963 5.5798 4.21702 6.67656 3.92584C8.25803 3.51032 8.25803 3.51032 9.87145 3.0864C12.7874 2.292 12.7874 2.292 15.0728 0.941154C16.8014 -0.00851965 16.8014 -0.00851964 19.024 0.398483Z" fill="#7CB243"/>
<path d="M17.7892 16.2712C20.227 17.5213 21.7876 18.4938 23.7159 20.6126C23.6752 21.6423 23.6344 22.672 23.5924 23.733C23.4047 27.2531 23.4047 27.2531 25.6915 29.7023C26.3434 30.2844 26.9954 30.8664 27.6671 31.466C24.685 33.9625 22.5253 35.6816 18.777 36.2822C15.3444 35.7322 12.8845 34.4335 9.88684 32.5514C11.6155 28.3457 11.6155 28.3457 13.838 27.1247C13.7565 25.9382 13.675 24.7518 13.5911 23.5295C13.838 19.5273 13.838 19.5273 15.8136 17.4244C16.4655 17.0439 17.1175 16.6633 17.7892 16.2712Z" fill="#E3F0F8"/>
<path d="M18.777 9.75928C22.3788 10.0354 24.4985 10.6975 27.5437 12.8796C30.617 17.8456 30.0611 22.3773 29.6427 28.2101C27.8523 28.8884 27.8523 28.8884 25.6915 29.2954C24.7136 28.5791 23.7357 27.8628 22.7282 27.1247C22.7485 26.1174 22.7689 25.1101 22.7899 24.0722C22.7116 19.6824 21.2518 18.5 18.777 15.186C18.5301 12.1335 18.5301 12.1335 18.777 9.75928Z" fill="#5E8F2F"/>
<path d="M17.7892 16.2712C21.7404 18.4419 21.7404 18.4419 23.7159 20.6126C23.6752 21.6423 23.6344 22.672 23.5925 23.733C23.4047 27.2531 23.4047 27.2531 25.6915 29.7023C26.3435 30.2844 26.9954 30.8664 27.6671 31.466C22.1108 35.8074 22.1108 35.8074 18.777 35.8074C18.451 29.3605 18.125 22.9135 17.7892 16.2712Z" fill="#C7D7E0"/>
</svg>
